<svg width="208.000000" height="40.000000" viewBox="0 0 208 40" fill="none" xmlns="http://www.w3.org/2000/svg" xmlns:xlink="http://www.w3.org/1999/xlink">
	<desc>
			richtexteditor.com
	</desc>
	<defs>
		<clipPath id="clip17_10">
			<rect id="ico" width="28.000000" height="28.000000" transform="translate(1.301590 1.813499)" fill="white"/>
		</clipPath>
		<clipPath id="clip17_5">
			<rect id="logo" width="208.000000" height="40.000000" fill="white"/>
		</clipPath>
	</defs>
	<rect width="208.000000" height="40.000000" fill="#FFFFFF"/>
	<g clip-path="url(#clip17_5)">
		<path id="richtexteditor" d="M40.929 12.1988Q41.6797 12.1988 42.3267 12.4246Q42.9798 12.6504 43.3277 12.9983L41.9788 15.6717Q41.3257 15.2261 40.5017 15.2261Q39.1528 15.2261 38.3411 16.3492Q37.5293 17.4722 37.5293 19.4498L37.5293 25.4739L34.0503 25.4739L34.0503 12.5223L37.1021 12.5223Q37.2241 14.0237 37.3279 14.573Q37.9016 13.4012 38.8233 12.803Q39.751 12.1988 40.929 12.1988ZM46.5032 10.8743Q45.6792 10.8743 45.0628 10.2395Q44.4524 9.59868 44.4524 8.75029Q44.4524 7.87138 45.0506 7.24883Q45.6548 6.62627 46.5032 6.62627Q47.3516 6.62627 47.9741 7.26714Q48.6028 7.9019 48.6028 8.75029Q48.6028 9.59868 47.9741 10.2395Q47.3516 10.8743 46.5032 10.8743ZM48.2793 25.4739L44.8003 25.4739L44.8003 12.5223L48.2793 12.5223L48.2793 25.4739ZM57.3292 22.7518Q58.8245 22.7518 59.7278 21.2747L62.3768 22.825Q61.7542 24.2715 60.3992 25.0223Q59.0504 25.773 57.3292 25.773Q55.6019 25.773 54.1004 24.9856Q52.5989 24.1983 51.6712 22.6602Q50.7496 21.1221 50.7496 18.9981Q50.7496 16.8497 51.6712 15.3116Q52.5989 13.7735 54.1004 12.9861Q55.6019 12.1988 57.3292 12.1988Q59.0504 12.1988 60.3992 12.9495Q61.7542 13.7002 62.3768 15.1468L59.7278 16.6971Q58.8489 15.2505 57.3292 15.2505Q55.9742 15.2505 55.1624 16.2637Q54.3507 17.2769 54.3507 18.9981Q54.3507 20.701 55.1746 21.7264Q56.0047 22.7518 57.3292 22.7518ZM71.4783 12.1988Q73.6023 12.1988 74.8657 13.6148Q76.1292 15.0247 76.1292 17.7225L76.1292 25.4739L72.6502 25.4739L72.6502 18.8516Q72.6502 15.2994 70.3003 15.2994Q69.0491 15.2994 68.2861 16.2637Q67.5293 17.222 67.5293 18.9737L67.5293 25.4739L64.0503 25.4739L64.0503 6.44926L67.5293 6.44926L67.5293 14.2496Q68.7744 12.1988 71.4783 12.1988ZM88.078 24.7232Q86.8024 25.773 84.5257 25.773Q82.4261 25.773 81.1383 24.6622Q79.8505 23.5513 79.8505 20.6766L79.8505 15.452L77.5494 15.452L77.5494 12.5223L79.8505 12.5223L79.8505 8.54887L83.3295 8.54887L83.3295 12.5223L87.2296 12.5223L87.2296 15.452L83.3295 15.452L83.3295 20.0967Q83.3295 21.3968 83.775 22.0743Q84.2267 22.7518 85.2277 22.7518Q86.1005 22.7518 86.8756 22.2269L88.078 24.7232ZM95.1748 12.1988Q96.9021 12.1988 98.2388 12.9617Q99.5755 13.7247 100.314 15.1163Q101.053 16.5018 101.053 18.2962Q101.053 19.1019 100.9 19.9258L92.3001 19.9258Q92.5259 21.3724 93.3499 22.1109Q94.1738 22.8494 95.4007 22.8494Q96.2796 22.8494 96.9632 22.4649Q97.6528 22.0743 98.0252 21.2991L100.576 22.8006Q100.052 24.2227 98.5623 24.9978Q97.0791 25.773 95.2542 25.773Q93.5025 25.773 92.001 24.9978Q90.4995 24.2227 89.584 22.6724Q88.6746 21.1221 88.6746 18.9493Q88.6746 16.8008 89.584 15.2749Q90.4995 13.7491 91.9766 12.9739Q93.4536 12.1988 95.1748 12.1988ZM95.0772 15.0247Q94.0518 15.0247 93.3255 15.6778Q92.5991 16.3248 92.3489 17.4966L97.5003 17.4966Q97.4026 16.3003 96.7373 15.6656Q96.0781 15.0247 95.0772 15.0247ZM108.176 16.3736L110.929 12.5223L114.725 12.5223L109.977 18.9249L114.725 25.4739L110.752 25.4739L108.03 21.5982L105.326 25.4739L101.474 25.4739L106.229 19.0713L101.474 12.5223L105.503 12.5223L108.176 16.3736ZM125.878 24.7232Q124.602 25.773 122.326 25.773Q120.226 25.773 118.938 24.6622Q117.65 23.5513 117.65 20.6766L117.65 15.452L115.349 15.452L115.349 12.5223L117.65 12.5223L117.65 8.54887L121.129 8.54887L121.129 12.5223L125.03 12.5223L125.03 15.452L121.129 15.452L121.129 20.0967Q121.129 21.3968 121.575 22.0743Q122.027 22.7518 123.028 22.7518Q123.9 22.7518 124.676 22.2269L125.878 24.7232ZM132.975 12.1988Q134.702 12.1988 136.039 12.9617Q137.375 13.7247 138.114 15.1163Q138.853 16.5018 138.853 18.2962Q138.853 19.1019 138.7 19.9258L130.1 19.9258Q130.326 21.3724 131.15 22.1109Q131.974 22.8494 133.201 22.8494Q134.08 22.8494 134.763 22.4649Q135.453 22.0743 135.825 21.2991L138.376 22.8006Q137.852 24.2227 136.362 24.9978Q134.879 25.773 133.054 25.773Q131.302 25.773 129.801 24.9978Q128.3 24.2227 127.384 22.6724Q126.475 21.1221 126.475 18.9493Q126.475 16.8008 127.384 15.2749Q128.3 13.7491 129.777 12.9739Q131.254 12.1988 132.975 12.1988ZM132.877 15.0247Q131.852 15.0247 131.125 15.6778Q130.399 16.3248 130.149 17.4966L135.3 17.4966Q135.203 16.3003 134.537 15.6656Q133.878 15.0247 132.877 15.0247ZM150.153 6.44926L153.626 6.44926L153.626 25.4739L150.574 25.4739Q150.452 24.0213 150.379 23.5269Q149.701 24.6499 148.615 25.2115Q147.528 25.773 146.253 25.773Q144.654 25.773 143.329 24.9734Q142.005 24.1739 141.199 22.6358Q140.4 21.0977 140.4 18.9981Q140.4 16.8741 141.199 15.336Q142.005 13.7979 143.329 12.9983Q144.654 12.1988 146.253 12.1988Q147.425 12.1988 148.438 12.6749Q149.451 13.1509 150.153 14.1214L150.153 6.44926ZM147.052 22.8006Q148.352 22.8006 149.25 21.8484Q150.153 20.8963 150.153 18.9981Q150.153 17.1243 149.25 16.2149Q148.352 15.2994 147.052 15.2994Q145.679 15.2994 144.837 16.2759Q144.001 17.2464 144.001 18.9981Q144.001 20.7498 144.837 21.7752Q145.679 22.8006 147.052 22.8006ZM158.578 10.8743Q157.754 10.8743 157.138 10.2395Q156.527 9.59868 156.527 8.75029Q156.527 7.87138 157.126 7.24883Q157.73 6.62627 158.578 6.62627Q159.427 6.62627 160.049 7.26714Q160.678 7.9019 160.678 8.75029Q160.678 9.59868 160.049 10.2395Q159.427 10.8743 158.578 10.8743ZM160.354 25.4739L156.875 25.4739L156.875 12.5223L160.354 12.5223L160.354 25.4739ZM172.578 24.7232Q171.302 25.773 169.026 25.773Q166.926 25.773 165.638 24.6622Q164.35 23.5513 164.35 20.6766L164.35 15.452L162.049 15.452L162.049 12.5223L164.35 12.5223L164.35 8.54887L167.829 8.54887L167.829 12.5223L171.73 12.5223L171.73 15.452L167.829 15.452L167.829 20.0967Q167.829 21.3968 168.275 22.0743Q168.727 22.7518 169.728 22.7518Q170.6 22.7518 171.376 22.2269L172.578 24.7232ZM173.175 18.9981Q173.175 16.9717 174.084 15.4214Q175 13.8711 176.525 13.035Q178.051 12.1988 179.827 12.1988Q181.579 12.1988 183.087 13.035Q184.6 13.8711 185.51 15.4214Q186.425 16.9717 186.425 18.9981Q186.425 21.0245 185.51 22.5748Q184.6 24.125 183.087 24.949Q181.579 25.773 179.827 25.773Q178.051 25.773 176.525 24.949Q175 24.125 174.084 22.5748Q173.175 21.0245 173.175 18.9981ZM176.776 18.9981Q176.776 20.7254 177.636 21.7386Q178.503 22.7518 179.803 22.7518Q181.103 22.7518 181.951 21.7386Q182.8 20.7254 182.8 18.9981Q182.8 17.2769 181.951 16.2515Q181.103 15.2261 179.803 15.2261Q178.503 15.2261 177.636 16.2515Q176.776 17.2769 176.776 18.9981ZM195.829 12.1988Q196.58 12.1988 197.227 12.4246Q197.88 12.6504 198.228 12.9983L196.879 15.6717Q196.226 15.2261 195.402 15.2261Q194.053 15.2261 193.241 16.3492Q192.429 17.4722 192.429 19.4498L192.429 25.4739L188.95 25.4739L188.95 12.5223L192.002 12.5223Q192.124 14.0237 192.228 14.573Q192.802 13.4012 193.723 12.803Q194.651 12.1988 195.829 12.1988Z" fill-rule="evenodd" fill="#377DFF"/>
		<g clip-path="url(#clip17_10)">
			<path id="path" d="M5.11977 28.5408C5.03641 28.5408 4.95324 28.5367 4.87028 28.5285C4.78731 28.5203 4.70494 28.5081 4.62318 28.4919C4.54141 28.4756 4.46064 28.4554 4.38087 28.4312C4.30109 28.407 4.22269 28.3789 4.14567 28.347C4.06865 28.3151 3.99338 28.2795 3.91985 28.2402C3.84633 28.2009 3.77491 28.1581 3.7056 28.1118C3.63628 28.0655 3.5694 28.0159 3.50495 27.963C3.44051 27.9101 3.37881 27.8542 3.31986 27.7952C3.26092 27.7363 3.20499 27.6746 3.15211 27.6101C3.09922 27.5457 3.04962 27.4788 3.0033 27.4095C2.95699 27.3402 2.91418 27.2688 2.87489 27.1952C2.83559 27.1217 2.79998 27.0464 2.76808 26.9694C2.73618 26.8924 2.70812 26.814 2.68392 26.7342C2.65972 26.6544 2.6395 26.5737 2.62323 26.4919C2.60696 26.4101 2.59475 26.3278 2.58658 26.2448C2.57841 26.1618 2.57432 26.0787 2.57432 25.9953L2.57432 5.63168C2.57432 5.54832 2.57841 5.46515 2.58658 5.38219C2.59475 5.29922 2.60696 5.21685 2.62323 5.13509C2.6395 5.05332 2.65972 4.97255 2.68392 4.89278C2.70812 4.813 2.73618 4.7346 2.76808 4.65758C2.79998 4.58056 2.83559 4.50529 2.87489 4.43176C2.91418 4.35824 2.95699 4.28682 3.0033 4.21751C3.04962 4.14819 3.09922 4.08131 3.15211 4.01686C3.20499 3.95242 3.26092 3.89072 3.31986 3.83177C3.37881 3.77283 3.44051 3.7169 3.50495 3.66402C3.5694 3.61113 3.63628 3.56153 3.7056 3.51521C3.77491 3.46889 3.84633 3.42609 3.91985 3.3868C3.99338 3.3475 4.06865 3.31189 4.14567 3.27999C4.22269 3.24809 4.30109 3.22003 4.38087 3.19583C4.46064 3.17163 4.54141 3.15141 4.62318 3.13514C4.70494 3.11887 4.78731 3.10666 4.87028 3.09849C4.95324 3.09032 5.03641 3.08623 5.11977 3.08623L17.847 3.08623L17.847 5.63168L6.3925 5.63168C6.30893 5.63168 6.22617 5.63983 6.1442 5.65614C6.06224 5.67244 5.98266 5.69659 5.90545 5.72856C5.82824 5.76054 5.7549 5.79975 5.68541 5.84618C5.61593 5.8926 5.55164 5.94537 5.49255 6.00446C5.43346 6.06355 5.38069 6.12784 5.33427 6.19732C5.28783 6.26681 5.24863 6.34015 5.21665 6.41736C5.18467 6.49457 5.16053 6.57415 5.14423 6.65611C5.12792 6.73808 5.11977 6.82084 5.11977 6.90441L5.11977 24.7226C5.11977 24.8062 5.12792 24.8889 5.14423 24.9709C5.16053 25.0528 5.18467 25.1324 5.21665 25.2096C5.24863 25.2868 5.28783 25.3602 5.33427 25.4297C5.38069 25.4992 5.43346 25.5635 5.49255 25.6225C5.55164 25.6816 5.61593 25.7344 5.68541 25.7808C5.7549 25.8272 5.82824 25.8665 5.90545 25.8984C5.98266 25.9304 6.06224 25.9546 6.1442 25.9709C6.22617 25.9872 6.30893 25.9953 6.3925 25.9953L24.2107 25.9953C24.2943 25.9953 24.377 25.9872 24.459 25.9709C24.5409 25.9546 24.6205 25.9304 24.6977 25.8984C24.7749 25.8665 24.8483 25.8272 24.9178 25.7808C24.9873 25.7344 25.0515 25.6816 25.1106 25.6225C25.1697 25.5635 25.2225 25.4992 25.2689 25.4297C25.3153 25.3602 25.3545 25.2868 25.3865 25.2096C25.4185 25.1324 25.4426 25.0528 25.459 24.9709C25.4753 24.8889 25.4834 24.8062 25.4834 24.7226L25.4834 13.268L28.0289 13.268L28.0289 25.9953C28.0289 26.0787 28.0248 26.1618 28.0166 26.2448C28.0084 26.3278 27.9962 26.4101 27.9799 26.4919C27.9637 26.5737 27.9435 26.6544 27.9193 26.7342C27.8951 26.814 27.867 26.8924 27.8351 26.9694C27.8032 27.0464 27.7676 27.1217 27.7283 27.1952C27.689 27.2688 27.6462 27.3402 27.5999 27.4095C27.5536 27.4788 27.504 27.5457 27.4511 27.6101C27.3982 27.6746 27.3423 27.7363 27.2833 27.7952C27.2244 27.8542 27.1627 27.9101 27.0982 27.963C27.0338 28.0159 26.9669 28.0655 26.8976 28.1118C26.8283 28.1581 26.7569 28.2009 26.6833 28.2402C26.6098 28.2795 26.5345 28.3151 26.4575 28.347C26.3805 28.3789 26.3021 28.407 26.2223 28.4312C26.1425 28.4554 26.0618 28.4756 25.98 28.4919C25.8982 28.5081 25.8159 28.5203 25.7329 28.5285C25.6499 28.5367 25.5668 28.5408 25.4834 28.5408L5.11977 28.5408ZM13.8736 15.6862L26.4736 3.08623L28.2732 4.88586L15.6732 17.4859L13.8736 15.6862Z" fill-rule="nonzero" fill="#377DFF"/>
		</g>
	</g>
</svg>
