<?xml version="1.0" encoding="UTF-8" standalone="no" ?>
<svg 
     xmlns="http://www.w3.org/2000/svg" version="1.1" width="1230" height="381" id="svg2985" x="0px" y="0px" xml:space="preserve"><g transform="matrix(1.25,0,0,-1.25,-17.2575,685.54625)"                             id="g2993">
    <g id="g2995">
    <g clip-path="url(#clipPath2999)" id="g2997">
    <path d="m 14.441,548.386 40.123,0 0,-39.357 -40.123,0 0,39.357 z" id="path3003" style="fill:#8c98a4;fill-opacity:1;fill-rule:nonzero;stroke:none" />
    <path d="m 13.806,487.814 41.366,0 0,-168.098 -41.366,0 0,168.098 z" id="path3005" style="fill:#8c98a4;fill-opacity:1;fill-rule:nonzero;stroke:none" />
    <path d="m 365.481,352.788 73.936,0 c -1.446,23.414 -17.412,36.205 -36.198,36.205 -21.625,0 -35.646,-15.285 -37.738,-36.205 l 0,-33.107 c 1.644,-16.502 12.973,-39.914 37.588,-39.914 16.702,0 27.744,8.264 32.812,21.215 l 41.147,0 c -7.149,-33.703 -38.465,-57.419 -73.809,-57.419 -36.247,0 -74.425,27.846 -80.542,74.245 0,0 -13.565,-0.326 -23.63,-0.326 -24.309,0 -40.058,9.551 -40.058,43.854 l 0,93.71 -25.516,0 0,33.008 27.361,0 0,60.332 38.466,0 0,-60.332 31.121,0 0,-32.785 -29.82,0 0.009,-81.134 c 0,-16.212 5.488,-21.809 20.751,-21.809 l 1.779,0 c 5.213,39.79 37.57,71.012 79.929,71.012 41.762,0 73.555,-33.745 78.328,-78.067 l 3.342,0.027 0,203.139 40.628,0 0,-228.756 -159.886,0 0,33.107"
                                                                                                                                                                                                                             style="fill:#8c98a4;fill-opacity:1;fill-rule:nonzero;stroke:none" />
    <path d="m 128.91,435.225 c 4.996,11.347 15.328,16.704 26.586,16.704 19.718,0 29.51,-13.68 29.51,-36.565 l 0,-95.697 41.366,0 c 0,0 -0.087,103.478 -0.028,103.478 0,12.558 -0.341,19.595 -3.031,29.602 -5.437,20.128 -23.587,38.691 -53.137,38.691 -27.448,0 -37.621,-15.618 -44.52,-28.012 l -0.91,0 0.549,24.518 -41.54,0 0,-168.277 41.337,0 0,91.567 c 0,9.876 1.091,17.817 3.818,23.991"
                                                                                                                                                                                                                                                                                                        id="path3009" style="fill:#8c98a4;fill-opacity:1;fill-rule:nonzero;stroke:none" />
    <path d="m 572.533,342.347 4.021,0 c 3.398,0 6.514,0.174 6.514,4.267 0,3.436 -2.833,3.969 -5.437,3.969 l -5.098,0 0,-8.236 m -3.855,11.499 9.574,0 c 5.894,0 8.671,-2.431 8.671,-7.413 0,-4.678 -2.835,-6.638 -6.516,-7.048 l 7.078,-11.447 -4.136,0 -6.738,11.149 -4.078,0 0,-11.149 -3.855,0 0,25.908 z m 8.271,-31.896 c 9.799,0 17.391,8.188 17.391,19.031 0,10.616 -7.592,18.793 -17.391,18.793 -9.911,0 -17.504,-8.177 -17.504,-18.793 0,-10.843 7.593,-19.031 17.504,-19.031 m 0,41.086 c 11.557,0 21.245,-9.545 21.245,-22.055 0,-12.747 -9.688,-22.29 -21.245,-22.29 -11.612,0 -21.357,9.543 -21.357,22.29 0,12.51 9.745,22.055 21.357,22.055"
                                                                                                                                                                                                                                                                                                                                                                                  id="path3011" style="fill:#8c98a4;fill-opacity:1;fill-rule:nonzero;stroke:none" /></g></g></g>
    </svg>