<?xml version="1.0" encoding="UTF-8" ?>
<!DOCTYPE svg PUBLIC "-//W3C//DTD SVG 1.1//EN" "http://www.w3.org/Graphics/SVG/1.1/DTD/svg11.dtd">
<!-- Creator: CorelDRAW X6 -->
<svg xmlns="http://www.w3.org/2000/svg" xml:space="preserve" width="528.254mm" height="99.0608mm" version="1.1" style="shape-rendering:geometricPrecision; text-rendering:geometricPrecision; image-rendering:optimizeQuality; fill-rule:evenodd; clip-rule:evenodd"
     viewBox="0 0 116268 21803"
     xmlns:xlink="http://www.w3.org/1999/xlink">
<defs>
    <style type="text/css">
        <![CDATA[
        .fil0 {fill:#8c98a4;fill-rule:nonzero}
        ]]>
    </style>
 </defs>
<g id="Livello_x0020_1">
<metadata id="CorelCorpID_0Corel-Layer" />

<path class="fil0" d="M20407 21470l-2330 0 0 -13427c0,-1063 62,-2359 195,-3898l-57 0c-224,905 -424,1549 -600,1939l-6837 15385 -1148 0 -6823 -15271c-195,-448 -396,-1129 -600,-2054l-57 0c76,801 109,2111 109,3922l0 13403 -2258 0 0 -20017 3097 0 6142 13956c476,1072 781,1873 924,2402l81 0c400,-1096 724,-1916 962,-2454l6270 -13904 2930 0 0 20017zm6127 -17925c-405,0 -758,-138 -1044,-419 -290,-276 -434,-629 -434,-1058 0,-429 143,-786 434,-1067 286,-286 639,-429 1044,-429 419,0 777,143 1072,429 290,281 438,639 438,1067 0,410 -148,758 -438,1044 -295,291 -653,434 -1072,434zm1120 17925l-2292 0 0 -14294 2292 0 0 14294zm14375 -658c-1096,662 -2401,991 -3907,991 -2039,0 -3683,-662 -4936,-1987 -1248,-1324 -1877,-3045 -1877,-5160 0,-2354 676,-4245 2025,-5675 1348,-1425 3149,-2139 5403,-2139 1258,0 2363,229 3321,696l0 2344c-1063,-743 -2196,-1115 -3407,-1115 -1458,0 -2659,524 -3592,1572 -934,1043 -1406,2420 -1406,4121 0,1677 443,2997 1320,3964 881,967 2058,1453 3540,1453 1248,0 2420,-415 3516,-1244l0 2177zm10916 -11321c-400,-305 -977,-457 -1730,-457 -982,0 -1796,457 -2454,1382 -653,920 -981,2177 -981,3769l0 7285 -2292 0 0 -14294 2292 0 0 2944 57 0c324,-1005 819,-1787 1491,-2354 672,-562 1420,-843 2249,-843 596,0 1048,67 1368,195l0 2373zm8081 12312c-2111,0 -3797,-667 -5060,-2001 -1258,-1334 -1892,-3107 -1892,-5313 0,-2402 657,-4274 1968,-5627 1315,-1349 3088,-2020 5322,-2020 2130,0 3793,653 4989,1968 1196,1310 1792,3131 1792,5456 0,2282 -643,4107 -1930,5479 -1291,1372 -3021,2058 -5189,2058zm167 -13036c-1467,0 -2630,500 -3488,1501 -857,1001 -1286,2378 -1286,4141 0,1692 434,3026 1301,4002 867,977 2025,1467 3473,1467 1482,0 2621,-481 3416,-1439 796,-957 1191,-2320 1191,-4088 0,-1787 -396,-3164 -1191,-4131 -796,-972 -1934,-1453 -3416,-1453zm9749 12188l0 -2459c1243,919 2620,1382 4117,1382 2011,0 3016,-672 3016,-2011 0,-381 -86,-705 -257,-967 -176,-267 -405,-500 -701,-705 -290,-205 -638,-391 -1034,-553 -396,-162 -819,-333 -1277,-510 -634,-252 -1186,-505 -1667,-762 -477,-252 -877,-543 -1201,-862 -319,-324 -562,-686 -724,-1096 -162,-410 -243,-891 -243,-1439 0,-672 152,-1263 458,-1782 310,-515 719,-948 1229,-1296 515,-348 1096,-615 1753,-791 653,-176 1334,-262 2030,-262 1239,0 2344,214 3321,638l0 2320c-1048,-691 -2258,-1034 -3626,-1034 -429,0 -815,48 -1163,148 -343,95 -638,233 -886,410 -243,176 -434,391 -572,634 -134,248 -200,519 -200,819 0,372 67,681 200,934 138,252 334,477 595,672 257,195 577,372 948,529 372,157 795,329 1272,515 629,243 1201,491 1701,748 500,257 929,543 1286,867 353,319 624,691 815,1110 191,419 286,915 286,1491 0,710 -157,1324 -467,1844 -314,519 -729,953 -1248,1296 -524,348 -1125,600 -1801,772 -681,167 -1391,248 -2139,248 -1468,0 -2745,-281 -3821,-848zm18968 848c-2111,0 -3797,-667 -5060,-2001 -1258,-1334 -1892,-3107 -1892,-5313 0,-2402 657,-4274 1968,-5627 1315,-1349 3088,-2020 5322,-2020 2130,0 3793,653 4989,1968 1196,1310 1792,3131 1792,5456 0,2282 -643,4107 -1930,5479 -1291,1372 -3021,2058 -5189,2058zm167 -13036c-1467,0 -2630,500 -3488,1501 -857,1001 -1286,2378 -1286,4141 0,1692 434,3026 1301,4002 867,977 2025,1467 3473,1467 1482,0 2621,-481 3416,-1439 796,-957 1191,-2320 1191,-4088 0,-1787 -396,-3164 -1191,-4131 -796,-972 -1934,-1453 -3416,-1453zm17163 -6452c-448,-248 -953,-376 -1525,-376 -1596,0 -2397,1010 -2397,3030l0 2206 3350 0 0 1954 -3350 0 0 12341 -2277 0 0 -12341 -2445 0 0 -1954 2445 0 0 -2316c0,-1501 434,-2683 1296,-3555 867,-872 1949,-1305 3240,-1305 700,0 1253,86 1663,252l0 2063zm9029 19016c-538,295 -1253,443 -2135,443 -2506,0 -3755,-1396 -3755,-4188l0 -8457 -2459 0 0 -1954 2459 0 0 -3488 2287 -743 0 4231 3602 0 0 1954 -3602 0 0 8057c0,958 162,1639 491,2049 324,410 862,615 1620,615 577,0 1072,-157 1491,-476l0 1958z" />

 </g>
</svg>
