<?xml version="1.0" encoding="UTF-8" standalone="no"?>
<svg
   xmlns:svg="http://www.w3.org/2000/svg"
   xmlns="http://www.w3.org/2000/svg"
   xmlns:xlink="http://www.w3.org/1999/xlink"
   xmlns:sodipodi="http://sodipodi.sourceforge.net/DTD/sodipodi-0.dtd"
   xmlns:inkscape="http://www.inkscape.org/namespaces/inkscape"
   width="455"
   height="192"
   viewBox="0 60 455 192"
   sodipodi:version="0.32"
   inkscape:version="0.45.1"
   inkscape:output_extension="org.inkscape.output.svg.inkscape">
  <g
     inkscape:label="Layer 1"
     inkscape:groupmode="layer"
     id="layer1"
     transform="translate(-500.40144,-11.433085)">
    <g
       id="g2501"
       transform="matrix(3.90482,0,0,3.90482,-1453.5783,-590.94077)">
      <path
         style="fill:#8c98a4;fill-opacity:1;fill-rule:nonzero;stroke:none"
         d="M 505.167,190.48218 L 500.402,190.48218 L 500.402,174.39518 L 508.676,174.39518 L 518.391,186.38918 L 518.473,186.59518 L 518.473,174.39518 L 523.239,174.39518 L 523.239,190.48218 L 515.016,190.48218 L 505.229,178.40518 L 505.167,178.26118 L 505.167,190.48218"
         id="path2224" />
      <path
         style="fill:#8c98a4;fill-opacity:1;fill-rule:nonzero;stroke:none"
         d="M 548.514,174.40718 L 553.568,174.40718 L 553.568,190.47718 L 548.514,190.47718 L 548.514,174.40718 z "
         id="path2226" />
      <path
         style="fill:#8c98a4;fill-opacity:1;fill-rule:nonzero;stroke:none"
         d="M 562.233,174.40718 L 568.938,174.40718 L 559.675,182.22618 L 570.134,190.47718 L 562.811,190.47718 L 553.569,182.22618 L 562.233,174.40718"
         id="path2228" />
      <path
         style="fill:#8c98a4;fill-opacity:1;fill-rule:nonzero;stroke:none"
         d="M 571.062,174.39518 L 576.116,174.39518 L 576.116,190.47718 L 571.062,190.47718 L 571.062,174.39518 z "
         id="path2230" />
      <path
         style="fill:#8c98a4;fill-opacity:1;fill-rule:nonzero;stroke:none"
         d="M 584.153,187.71318 L 582.647,190.47718 L 577.036,190.47718 L 585.927,174.40718 L 592.405,174.40718 L 601.214,190.47718 L 595.603,190.47718 L 594.117,187.71318 L 584.153,187.71318 z M 585.989,184.22718 L 592.261,184.22718 L 589.125,178.38918 L 585.989,184.22718"
         id="path2262" />
      <path
         style="fill:#8c98a4;fill-opacity:1;fill-rule:nonzero;stroke:none"
         d="M 525.225,178.45518 C 525.225,177.23818 525.431,176.39218 526.298,175.60818 C 527.721,174.18418 529.413,174.18418 535.89,174.18418 C 542.368,174.18418 543.998,174.18418 545.421,175.60818 C 546.288,176.39218 546.494,177.23818 546.494,178.45518 L 546.494,180.80618 C 546.494,180.80618 546.494,184.00418 546.494,186.35618 C 546.494,187.55218 546.288,188.48118 545.421,189.26518 C 543.998,190.60518 542.306,190.68818 535.828,190.68818 C 529.351,190.68818 527.721,190.60518 526.298,189.26518 C 525.431,188.48118 525.225,187.55218 525.225,186.35618 L 525.225,178.45518 z M 529.784,185.71618 C 529.784,186.41818 530.135,186.62418 531.269,186.62418 C 532.404,186.62418 540.449,186.62418 540.449,186.62418 C 541.584,186.62418 542.017,186.21118 542.017,185.71618 L 542.017,179.15618 C 542.017,178.37218 541.646,178.16618 540.511,178.16618 C 539.377,178.16618 531.269,178.16618 531.269,178.16618 C 530.135,178.16618 529.784,178.59918 529.784,179.15618 L 529.784,185.71618"
         id="path2264" />
    </g>
  </g>
</svg>
